<svg xmlns="http://www.w3.org/2000/svg" xmlns:xlink="http://www.w3.org/1999/xlink" width="1920" zoomAndPan="magnify" viewBox="0 0 1440 809.999993" height="1080" preserveAspectRatio="xMidYMid meet" version="1.0"><defs><clipPath id="9c617a177b"><path d="M 0 30 L 549 30 L 549 796 L 0 796 Z M 0 30 " clip-rule="nonzero"/></clipPath><clipPath id="409359cb83"><path d="M -397.746094 273.546875 L 380.753906 -97.726562 L 683.261719 536.582031 L -95.238281 907.855469 Z M -397.746094 273.546875 " clip-rule="nonzero"/></clipPath><clipPath id="d66f442732"><path d="M -397.746094 273.546875 L 380.753906 -97.726562 L 683.261719 536.582031 L -95.238281 907.855469 Z M -397.746094 273.546875 " clip-rule="nonzero"/></clipPath></defs><g clip-path="url(#9c617a177b)"><g clip-path="url(#409359cb83)"><g clip-path="url(#d66f442732)"><path fill="#018ede" d="M -190 631.164062 C -189.449219 596.53125 -178.324219 560.386719 -191.363281 528.351562 C -210.21875 481.90625 -272.308594 463.023438 -287.429688 415.269531 C -299.59375 376.929688 -275.398438 335.613281 -243.667969 310.828125 C -212.03125 286.089844 -173.234375 272.175781 -139.699219 249.945312 C -97.550781 222.078125 -65.160156 182.144531 -31.992188 144.082031 C 1.171875 106.019531 36.902344 68.148438 82.542969 46.617188 C 128.183594 25.085938 186.433594 23.082031 226.292969 54.097656 C 249.996094 72.453125 264.6875 100.050781 286.253906 120.839844 C 326.820312 159.992188 385.921875 170.882812 438.632812 190.589844 C 491.441406 210.25 546.347656 249.859375 548.007812 306.152344 C 549.8125 367.441406 488.96875 411.640625 470.160156 469.929688 C 452.558594 524.34375 471.558594 591.082031 435.378906 635.410156 C 410.769531 665.507812 368.222656 674.027344 329.304688 674.109375 C 290.382812 674.191406 250.871094 667.847656 212.976562 676.503906 C 122.351562 697.242188 55.199219 784.234375 -40.511719 794.804688 C -124.03125 803.796875 -191.269531 706.742188 -190 631.164062 Z M -190 631.164062 " fill-opacity="1" fill-rule="nonzero"/></g></g></g></svg>